<?xml version="1.0" standalone="no"?>
<!DOCTYPE svg PUBLIC "-//W3C//DTD SVG 20010904//EN"
 "http://www.w3.org/TR/2001/REC-SVG-20010904/DTD/svg10.dtd">
<svg version="1.0" xmlns="http://www.w3.org/2000/svg"
 width="2016.000000pt" height="2016.000000pt" viewBox="0 0 2016.000000 2016.000000"
 preserveAspectRatio="xMidYMid meet">
<metadata>
Created by potrace 1.14, written by Peter Selinger 2001-2017
</metadata>
<g transform="translate(0.000000,2016.000000) scale(0.100000,-0.100000)"
fill="#000000" stroke="none">
<path d="M9986 20103 c-1 -1 -60 -4 -131 -7 -158 -8 -222 -12 -300 -21 -33 -4
-71 -8 -85 -10 -28 -3 -114 -16 -145 -21 -10 -2 -35 -6 -55 -9 -20 -3 -47 -8
-60 -10 -14 -3 -38 -8 -55 -10 -45 -8 -160 -35 -245 -57 -41 -11 -83 -20 -92
-21 -10 -1 -18 -4 -18 -8 0 -4 -8 -6 -17 -5 -10 2 -33 -4 -52 -11 -19 -8 -43
-16 -53 -18 -27 -6 -229 -74 -265 -91 -17 -8 -35 -14 -41 -14 -12 0 -74 -26
-226 -94 -43 -20 -85 -36 -92 -36 -8 0 -14 -4 -14 -10 0 -5 -6 -10 -14 -10
-16 0 -73 -29 -94 -47 -7 -7 -20 -13 -28 -13 -8 0 -31 -10 -52 -23 -20 -13
-53 -31 -72 -41 -41 -21 -75 -40 -150 -84 -82 -49 -93 -56 -108 -69 -7 -7 -20
-13 -28 -13 -8 0 -14 -4 -14 -10 0 -5 -6 -10 -14 -10 -8 0 -16 -7 -20 -15 -3
-8 -12 -15 -21 -15 -8 0 -23 -8 -33 -17 -10 -10 -52 -40 -93 -67 -40 -27 -78
-54 -84 -60 -5 -7 -35 -29 -65 -51 -30 -22 -75 -57 -100 -78 -25 -21 -58 -50
-75 -64 -134 -112 -357 -330 -475 -463 -36 -41 -72 -81 -80 -90 -8 -8 -31 -36
-50 -60 -19 -25 -39 -50 -45 -57 -5 -7 -14 -18 -20 -25 -5 -7 -26 -33 -46 -58
-19 -25 -51 -67 -69 -95 -19 -27 -36 -52 -40 -55 -3 -3 -28 -39 -55 -80 -26
-41 -51 -77 -54 -80 -5 -4 -23 -34 -55 -95 -6 -11 -13 -22 -17 -25 -31 -28
-307 -568 -315 -618 -1 -6 -12 -31 -23 -55 -12 -24 -21 -47 -21 -51 0 -4 -7
-22 -15 -39 -15 -33 -94 -261 -100 -287 -1 -8 -13 -47 -25 -87 -12 -39 -23
-80 -25 -90 -2 -10 -4 -18 -5 -18 -1 0 -3 -7 -5 -15 -1 -8 -7 -33 -13 -55 -6
-22 -13 -51 -16 -65 -3 -14 -14 -67 -26 -119 -11 -52 -18 -96 -15 -99 2 -3 0
-12 -5 -21 -5 -10 -11 -37 -15 -62 -3 -24 -8 -53 -10 -64 -1 -11 -6 -42 -9
-70 -3 -27 -9 -68 -11 -90 -37 -275 -41 -800 -10 -1060 3 -22 7 -62 9 -90 2
-27 7 -58 11 -68 4 -9 5 -26 2 -37 -3 -11 -2 -20 2 -20 4 0 7 -8 8 -17 0 -10
4 -43 8 -73 5 -30 8 -61 8 -67 0 -7 4 -13 8 -13 4 0 6 -13 5 -30 -1 -16 1 -30
5 -30 4 0 5 -9 2 -20 -3 -12 0 -20 6 -20 7 0 10 -3 7 -8 -2 -4 2 -34 10 -67 8
-33 16 -71 19 -85 3 -14 14 -58 24 -97 10 -40 16 -73 13 -73 -4 0 -2 -4 5 -8
7 -4 14 -21 17 -37 10 -55 88 -284 144 -421 11 -29 18 -55 15 -58 -4 -3 -1 -6
5 -6 7 0 12 -5 12 -12 0 -22 202 -440 246 -510 14 -21 22 -38 19 -38 -3 0 3
-10 14 -21 11 -12 28 -38 37 -57 9 -20 41 -71 70 -115 30 -43 54 -82 54 -86 0
-4 8 -16 18 -27 9 -11 33 -42 52 -69 19 -28 38 -51 42 -53 4 -2 8 -9 8 -15 0
-7 10 -23 23 -37 13 -14 41 -50 64 -81 23 -31 47 -62 55 -70 12 -13 40 -47
134 -158 44 -53 362 -371 417 -416 26 -22 62 -53 80 -69 17 -15 48 -40 67 -54
19 -15 37 -29 40 -32 3 -4 23 -19 45 -36 21 -16 47 -36 56 -44 9 -8 33 -26 54
-40 20 -14 42 -31 50 -37 7 -7 16 -13 20 -13 4 0 13 -6 20 -12 30 -27 44 -38
50 -38 3 0 28 -16 55 -35 27 -19 54 -35 59 -35 5 0 11 -3 13 -8 5 -11 191
-122 206 -122 6 0 12 -4 12 -9 0 -8 397 -211 413 -211 4 0 31 -11 61 -25 90
-41 204 -83 210 -77 3 3 6 0 6 -6 0 -6 15 -14 33 -17 17 -4 43 -12 57 -18 14
-5 30 -11 36 -12 7 -2 38 -12 70 -23 50 -17 156 -50 189 -58 6 -1 39 -10 75
-19 130 -33 145 -36 170 -40 14 -1 44 -8 66 -14 38 -10 70 -16 134 -25 14 -2
39 -6 55 -9 27 -6 56 -10 145 -22 14 -2 57 -7 95 -10 39 -4 89 -10 113 -15 24
-4 42 -4 42 2 0 5 7 5 18 0 48 -23 573 -21 827 3 102 10 316 39 370 50 17 4
41 8 55 10 14 2 25 4 25 5 0 1 9 3 20 5 11 2 36 7 55 11 19 4 42 8 50 10 24 4
55 12 55 14 0 1 12 4 26 6 25 4 101 24 229 60 30 9 62 17 70 19 8 2 16 4 18 5
1 2 5 3 10 5 4 1 14 5 22 8 8 3 47 16 85 28 39 12 75 24 80 28 6 3 15 6 21 7
6 1 27 8 45 17 19 8 54 22 79 32 25 10 63 25 85 35 22 9 60 25 85 36 25 10
119 56 210 103 91 46 180 91 198 100 17 8 32 19 32 23 0 4 5 8 11 8 6 0 24 9
40 21 16 11 29 17 29 14 0 -4 7 0 15 8 8 8 51 36 95 62 44 27 80 52 80 58 0 6
3 8 6 4 4 -3 12 -1 20 6 30 27 43 37 49 37 7 0 70 46 99 73 11 9 24 17 29 17
4 0 16 7 24 16 9 9 41 34 72 57 31 23 67 54 82 68 14 14 33 30 42 35 46 26
424 391 507 491 14 16 41 47 60 69 19 21 51 59 70 84 50 64 49 63 68 87 10 12
27 34 38 49 10 15 27 35 37 46 9 10 17 23 17 28 0 6 7 13 15 16 8 4 15 11 15
17 0 5 11 25 25 43 14 19 25 37 24 40 0 4 6 11 15 16 9 5 16 15 16 22 0 7 9
21 20 31 11 10 20 23 20 28 0 6 11 24 23 41 29 38 82 128 82 139 0 4 5 11 10
15 6 4 26 36 44 72 19 36 37 67 41 70 6 4 22 41 21 47 -1 2 8 19 19 38 11 19
29 51 40 70 11 19 20 37 20 40 -1 6 45 106 72 158 11 20 16 37 12 37 -3 0 0 7
7 16 7 9 14 21 15 28 1 6 8 25 15 41 7 17 13 32 14 35 5 13 18 48 30 75 16 37
85 249 120 365 25 85 65 248 81 330 3 14 7 32 9 40 3 8 7 33 11 55 8 49 12 70
14 70 3 0 23 157 23 183 0 6 3 12 6 12 3 0 6 17 7 38 0 20 3 60 7 87 19 149
22 464 22 2785 l0 2524 -2443 1 c-1344 0 -2444 -1 -2446 -2z m3694 -1213 c5
-8 6 -18 4 -22 -4 -7 -5 -100 -2 -223 0 -5 0 -23 -1 -40 -1 -16 -1 -39 -1 -50
1 -20 2 -207 1 -235 0 -8 0 -136 1 -285 0 -148 0 -276 0 -282 -1 -15 -1 -157
-1 -175 1 -7 1 -107 0 -223 0 -115 0 -217 0 -225 0 -8 0 -24 -1 -35 -1 -11 -2
-63 -1 -115 0 -52 0 -102 0 -110 -1 -24 0 -192 1 -237 1 -10 1 -63 1 -118 0
-55 1 -104 1 -110 0 -5 -1 -23 -2 -40 -1 -16 -2 -86 -1 -155 0 -69 0 -134 0
-145 0 -11 0 -101 0 -200 -1 -99 -1 -187 0 -195 0 -8 0 -78 0 -155 -1 -77 -1
-146 0 -152 6 -190 -16 -479 -55 -693 -2 -14 -7 -41 -10 -60 -3 -19 -8 -38
-10 -41 -2 -3 -6 -21 -9 -40 -18 -100 -109 -414 -127 -436 -6 -7 -7 -13 -3
-13 4 0 2 -7 -5 -15 -7 -8 -10 -15 -6 -15 4 0 -1 -11 -10 -25 -9 -14 -14 -25
-11 -25 4 0 -7 -30 -23 -66 -17 -36 -30 -72 -30 -79 0 -8 -7 -21 -16 -29 -8
-9 -13 -16 -10 -16 5 0 -114 -241 -124 -250 -3 -3 -11 -16 -17 -30 -7 -14 -24
-43 -38 -65 -13 -22 -31 -52 -40 -67 -27 -48 -162 -240 -197 -280 -10 -12 -18
-24 -18 -27 0 -3 -14 -20 -30 -38 -17 -18 -30 -34 -30 -37 0 -3 -12 -18 -27
-34 -16 -16 -53 -58 -84 -93 -110 -124 -258 -264 -399 -379 -30 -25 -57 -47
-60 -50 -3 -3 -27 -21 -55 -40 -27 -19 -54 -38 -60 -42 -55 -44 -89 -68 -96
-68 -4 0 -14 -6 -21 -13 -37 -38 -396 -234 -533 -292 -22 -9 -48 -21 -57 -26
-10 -5 -25 -9 -33 -9 -8 0 -15 -4 -15 -8 0 -5 -6 -9 -12 -10 -7 0 -90 -27
-184 -59 -94 -32 -175 -59 -180 -60 -5 -1 -38 -9 -74 -18 -74 -19 -85 -22
-155 -35 -27 -6 -61 -12 -75 -15 -14 -3 -41 -8 -60 -11 -19 -3 -46 -7 -60 -10
-14 -2 -47 -7 -75 -10 -27 -3 -61 -8 -75 -10 -152 -24 -603 -23 -790 1 -19 2
-55 7 -80 10 -25 3 -81 12 -125 20 -44 8 -96 17 -115 21 -39 7 -63 12 -70 14
-3 1 -9 3 -15 5 -5 1 -12 3 -15 4 -6 3 -23 7 -61 14 -70 14 -333 96 -406 127
-13 6 -33 14 -45 19 -138 54 -431 197 -436 212 -2 5 -8 9 -14 9 -6 0 -44 20
-85 45 -40 25 -78 45 -84 45 -6 0 -7 5 -4 10 3 6 1 10 -5 10 -12 0 -120 72
-154 103 -11 9 -23 17 -26 17 -4 0 -18 9 -31 20 -13 11 -28 23 -34 27 -13 10
-116 95 -132 108 -110 95 -280 262 -360 354 -21 25 -47 55 -58 67 -12 12 -32
37 -45 55 -14 18 -44 56 -67 85 -24 29 -43 57 -43 62 0 6 -4 12 -8 14 -5 2
-28 32 -52 68 -24 36 -47 67 -50 70 -4 3 -10 15 -14 28 -4 12 -12 22 -17 22
-5 0 -9 4 -9 9 0 6 -24 49 -53 98 -29 48 -68 120 -87 158 -19 39 -38 72 -42
73 -5 2 -8 10 -8 18 0 8 -11 36 -24 62 -61 117 -174 434 -211 592 -2 8 -4 15
-5 15 -2 0 -8 25 -16 65 -3 19 -7 40 -9 45 -26 114 -39 192 -51 295 -5 44 -11
85 -14 85 -6 0 -14 205 -14 390 0 239 9 400 30 515 8 42 17 114 18 133 0 9 4
17 7 17 4 0 6 11 3 25 -2 14 -1 25 4 25 4 0 8 10 9 23 1 23 10 70 19 99 3 9 7
26 9 37 3 12 7 29 9 40 2 10 14 51 27 92 12 41 24 80 26 87 7 26 10 38 17 57
30 79 40 106 58 159 12 34 26 64 32 68 6 4 8 8 4 8 -12 0 69 179 87 192 6 4 7
8 3 8 -8 0 69 148 122 237 22 36 40 69 40 74 0 5 4 9 9 9 5 0 11 8 14 18 8 23
38 71 59 93 9 10 24 32 33 48 8 17 20 31 25 31 6 0 10 5 10 11 0 15 70 106
210 273 82 98 375 377 456 435 19 13 34 28 34 33 0 4 6 8 14 8 8 0 16 4 18 9
3 8 55 46 191 139 72 49 78 53 140 90 79 48 115 67 244 132 132 67 400 180
428 180 8 0 15 5 15 12 0 6 3 9 6 6 5 -5 60 9 114 29 36 14 346 90 370 91 8 1
38 6 65 12 28 6 68 13 90 15 22 2 41 5 43 6 1 1 16 3 32 4 17 1 31 3 33 5 3 2
56 7 202 15 66 4 121 8 122 8 1 1 830 2 1843 2 1578 -1 1842 -3 1850 -15z"/>
<path d="M9818 9615 c-1 -1 -50 -6 -108 -9 -58 -4 -112 -8 -120 -11 -8 -2 -46
-6 -83 -10 -37 -3 -76 -8 -85 -9 -9 -2 -33 -6 -52 -10 -19 -3 -55 -8 -79 -11
-25 -3 -85 -14 -135 -25 -50 -11 -104 -22 -121 -25 -34 -6 -221 -55 -305 -80
-30 -9 -59 -17 -65 -19 -16 -4 -89 -27 -105 -33 -8 -4 -17 -7 -20 -8 -3 0 -36
-12 -75 -25 -38 -13 -73 -23 -77 -22 -5 1 -8 -3 -8 -8 0 -6 -6 -10 -14 -10 -7
0 -33 -8 -57 -19 -49 -20 -81 -34 -89 -36 -31 -8 -50 -18 -50 -26 0 -5 -3 -8
-7 -7 -5 1 -24 -3 -43 -10 -19 -7 -37 -13 -40 -13 -3 -1 -16 -9 -30 -18 -22
-16 -56 -32 -70 -35 -6 -1 -133 -67 -220 -114 -36 -19 -73 -42 -82 -50 -10 -8
-18 -12 -18 -9 0 4 -31 -14 -69 -38 -38 -25 -74 -45 -79 -45 -6 0 -12 -7 -16
-15 -3 -8 -10 -15 -15 -15 -10 0 -144 -87 -181 -116 -8 -7 -49 -37 -90 -68
-41 -30 -79 -59 -85 -63 -42 -34 -146 -120 -175 -144 -19 -16 -38 -29 -42 -29
-5 0 -8 -7 -8 -15 0 -8 -5 -15 -10 -15 -21 0 -300 -277 -420 -416 -23 -26
-111 -131 -135 -161 -5 -7 -15 -18 -21 -26 -6 -7 -44 -58 -85 -113 -40 -54
-77 -100 -81 -102 -4 -2 -8 -8 -8 -13 0 -12 -82 -132 -92 -137 -5 -2 -8 -8 -8
-12 0 -5 -26 -51 -58 -102 -122 -196 -229 -406 -336 -661 -25 -59 -49 -119
-52 -135 -4 -15 -10 -29 -13 -32 -6 -4 -72 -204 -114 -345 -18 -57 -54 -197
-61 -235 -2 -14 -7 -32 -10 -40 -5 -15 -13 -49 -22 -105 -3 -16 -7 -39 -9 -50
-2 -11 -6 -31 -9 -45 -4 -14 -8 -38 -11 -55 -2 -16 -6 -44 -9 -60 -5 -35 -16
-115 -21 -165 -2 -19 -7 -53 -9 -75 -15 -110 -20 -245 -20 -500 0 -255 4 -349
20 -483 3 -26 6 -65 8 -87 2 -22 6 -51 10 -65 3 -14 8 -43 10 -65 3 -22 8 -56
11 -75 2 -19 6 -47 7 -62 1 -16 5 -28 8 -28 3 0 6 -10 7 -22 2 -47 61 -304 93
-413 5 -16 19 -61 30 -100 12 -38 24 -77 27 -85 4 -8 7 -17 8 -20 20 -69 50
-149 93 -256 12 -29 18 -55 15 -58 -4 -3 -2 -6 3 -6 6 0 16 -17 23 -38 8 -20
36 -84 62 -140 27 -57 49 -108 49 -113 0 -5 5 -9 12 -9 6 0 9 -3 6 -6 -6 -5
23 -64 99 -199 19 -33 37 -68 40 -77 3 -10 9 -18 13 -18 4 0 15 -18 25 -40 10
-22 22 -40 27 -40 4 0 8 -5 8 -10 0 -9 106 -177 120 -190 3 -3 10 -12 15 -21
19 -31 99 -144 109 -155 6 -6 20 -23 31 -39 110 -154 362 -428 564 -613 52
-48 105 -97 118 -110 13 -12 27 -22 31 -22 4 0 28 -19 54 -43 64 -58 87 -77
94 -77 3 0 11 -6 19 -13 7 -6 28 -23 46 -37 18 -14 38 -31 46 -38 7 -7 13 -10
13 -6 0 4 10 -2 23 -13 12 -11 42 -33 67 -49 25 -16 54 -37 64 -47 11 -9 26
-17 33 -17 7 0 13 -3 13 -7 0 -15 418 -256 436 -253 4 1 10 -2 13 -7 6 -8 50
-30 166 -83 125 -58 140 -64 148 -62 4 1 7 -2 7 -6 0 -5 6 -9 13 -9 10 0 154
-54 222 -83 25 -11 115 -41 135 -45 8 -2 16 -4 18 -5 1 -2 5 -3 10 -4 42 -12
134 -40 163 -51 20 -8 39 -11 42 -8 3 3 12 1 19 -3 7 -5 18 -9 23 -10 6 -1 28
-6 50 -12 22 -6 51 -13 65 -16 14 -3 42 -10 63 -15 20 -5 37 -7 37 -4 0 3 6 1
13 -4 6 -5 26 -10 42 -12 33 -2 47 -5 85 -14 14 -3 43 -9 65 -12 22 -3 54 -8
70 -10 94 -17 218 -30 390 -43 157 -11 760 -5 760 8 0 1 16 3 35 5 86 7 167
16 195 21 17 4 47 7 67 8 21 0 38 4 38 7 0 3 6 6 13 7 45 3 94 11 107 15 8 3
30 9 48 12 77 13 104 19 232 52 74 19 146 37 160 40 14 2 34 8 45 13 11 4 65
22 120 40 55 17 115 38 133 46 18 9 42 16 52 17 11 1 20 5 20 9 0 4 7 8 15 8
14 0 26 5 120 46 22 9 40 16 40 15 0 -4 249 114 340 162 119 62 171 91 191
108 10 8 18 12 20 9 2 -3 13 3 24 12 11 10 23 18 26 18 9 0 169 104 172 112 2
5 9 8 15 8 12 0 147 95 178 125 9 8 19 15 23 15 4 0 13 6 21 12 7 7 25 22 40
32 14 11 34 27 45 35 10 9 35 30 56 46 21 17 54 44 74 61 19 17 50 44 69 60
19 16 57 50 84 77 27 26 50 47 52 47 4 0 212 212 247 251 79 90 136 156 155
182 13 17 27 33 31 36 11 8 188 247 209 283 10 15 21 28 25 28 4 0 8 4 8 9 0
5 23 44 50 86 28 41 55 87 60 100 5 14 14 25 20 25 5 0 10 4 10 10 0 5 13 31
29 58 88 149 261 494 261 520 0 4 6 18 13 32 8 14 25 57 40 95 14 39 32 84 38
100 7 17 13 35 15 40 1 6 14 41 27 78 14 37 26 70 26 72 1 3 1 6 2 8 0 1 3 13
5 27 2 13 8 27 12 30 4 3 8 10 9 16 1 5 16 64 33 130 17 65 33 126 35 134 27
119 47 212 60 290 9 52 18 106 21 120 3 14 7 41 8 60 4 35 13 109 21 165 13
93 20 270 19 500 0 269 -7 404 -29 572 -3 18 -8 57 -11 85 -3 29 -9 69 -14 88
-4 19 -8 42 -8 50 0 8 -2 29 -6 45 -3 17 -8 41 -11 55 -9 47 -25 125 -30 145
-10 45 -44 182 -54 215 -5 19 -16 60 -25 90 -18 67 -73 238 -85 265 -16 35
-63 160 -65 170 -2 10 -21 53 -62 143 -13 29 -24 59 -24 67 0 8 -4 15 -9 15
-5 0 -13 10 -16 23 -9 31 -58 131 -68 138 -5 3 -8 9 -8 13 4 25 -266 484 -291
494 -4 2 -8 8 -8 13 0 11 -12 29 -108 158 -94 126 -105 142 -125 165 -11 11
-33 38 -50 59 -74 90 -96 115 -182 205 -129 135 -276 277 -371 357 -26 22 -54
47 -62 55 -9 8 -27 24 -42 35 -61 45 -225 170 -230 175 -13 14 -191 130 -199
130 -5 0 -11 4 -13 8 -1 4 -50 36 -108 70 -58 35 -112 67 -120 73 -8 5 -26 14
-40 20 -13 5 -27 13 -30 17 -6 8 -51 29 -64 30 -5 0 -12 4 -15 9 -3 5 -33 22
-66 38 -33 15 -95 45 -137 66 -43 21 -78 36 -78 34 0 -2 -20 7 -46 21 -25 13
-53 24 -62 24 -10 0 -26 6 -37 14 -11 7 -22 14 -25 14 -6 1 -31 10 -95 34 -27
11 -84 31 -125 44 -41 14 -82 28 -90 31 -8 3 -22 7 -30 9 -16 3 -65 17 -138
41 -24 7 -60 16 -80 19 -21 3 -44 9 -52 14 -13 6 -86 23 -155 35 -11 2 -20 4
-20 5 0 2 -22 6 -70 14 -22 4 -48 9 -57 12 -9 3 -32 7 -50 9 -18 2 -53 7 -78
11 -25 4 -55 7 -67 7 -13 -1 -23 2 -23 6 0 3 -17 7 -38 7 -35 1 -118 9 -207
20 -46 6 -641 14 -647 9z"/>
</g>
</svg>
